<?xml version="1.0" standalone="no"?>
<!DOCTYPE svg PUBLIC "-//W3C//DTD SVG 20010904//EN"
 "http://www.w3.org/TR/2001/REC-SVG-20010904/DTD/svg10.dtd">
<svg version="1.0" xmlns="http://www.w3.org/2000/svg"
 width="2200.000000pt" height="1467.000000pt" viewBox="0 0 2200.000000 1467.000000"
 preserveAspectRatio="xMidYMid meet">

<g transform="translate(0.000000,1467.000000) scale(0.100000,-0.100000)"
fill="#4e5158" stroke="none">
<path d="M8555 11479 c-49 -7 -201 -39 -516 -107 -22 -5 -48 -4 -70 4 -118 43
-238 -36 -239 -156 0 -43 8 -66 40 -117 12 -19 11 -31 -13 -100 -40 -120 -51
-192 -44 -311 5 -90 10 -115 36 -166 51 -103 175 -231 379 -388 56 -44 102
-83 102 -88 0 -13 -280 -190 -453 -286 -432 -242 -1247 -606 -1577 -704 -188
-55 -308 -74 -485 -74 -246 0 -382 26 -610 116 -311 123 -622 310 -960 578
-181 143 -404 309 -438 326 -35 18 -150 30 -191 20 -36 -9 -88 -66 -117 -128
-13 -29 -59 -98 -102 -153 -93 -119 -210 -345 -261 -504 -38 -117 -100 -363
-146 -574 -35 -162 -39 -267 -12 -312 18 -29 18 -31 -10 -118 -15 -49 -37
-139 -48 -201 -70 -369 -90 -491 -101 -600 -8 -92 -15 -125 -29 -136 -31 -28
-39 -55 -52 -171 -14 -121 -16 -725 -4 -984 l7 -140 -30 -17 c-35 -20 -87 -96
-101 -150 -30 -111 -48 -481 -66 -1333 -6 -304 -5 -311 15 -337 12 -14 21 -33
21 -42 0 -22 64 -66 192 -132 101 -51 111 -54 127 -40 36 33 81 13 81 -35 0
-23 9 -30 68 -57 37 -16 108 -42 157 -57 83 -26 90 -26 116 -11 38 23 56 20
76 -11 9 -16 18 -29 19 -31 4 -7 124 -31 229 -46 85 -13 111 -14 114 -4 2 6
15 22 27 35 20 20 27 22 45 13 11 -7 27 -27 35 -46 8 -19 20 -34 27 -34 6 0
144 -14 304 -32 l293 -32 30 22 c41 31 74 28 99 -6 19 -27 26 -30 133 -40 62
-6 175 -16 251 -22 l138 -11 35 30 c44 39 56 39 90 -2 l27 -32 221 -5 221 -5
38 32 c20 18 44 33 52 33 17 0 59 -38 66 -59 3 -9 65 -14 241 -18 l236 -6 32
26 c40 34 46 34 80 -3 l28 -30 225 0 224 0 24 35 c39 58 91 60 112 5 l11 -30
236 0 235 0 19 35 c32 59 84 60 112 3 l15 -33 235 1 235 1 27 33 c34 40 70 39
90 -2 l13 -28 256 0 256 0 23 25 c29 32 48 32 76 0 l22 -25 284 0 284 0 20 25
c24 30 45 32 74 4 21 -20 31 -21 310 -19 272 1 290 2 309 20 27 25 51 25 72 0
17 -19 30 -20 366 -20 l349 0 28 30 c34 36 44 37 74 5 22 -24 28 -25 137 -24
220 1 463 15 467 28 15 44 66 53 97 18 l20 -24 280 14 c251 13 282 16 301 34
24 23 57 25 74 4 10 -12 30 -14 104 -10 50 3 186 10 301 16 116 5 311 17 434
25 124 8 266 14 316 14 79 0 94 3 110 20 22 25 43 25 69 2 19 -17 34 -18 200
-10 162 8 181 10 193 28 17 25 50 26 75 3 16 -14 35 -17 101 -15 167 6 311 22
327 37 20 18 44 19 72 4 14 -8 60 -7 164 2 123 10 149 16 175 35 30 22 49 22
75 2 30 -23 968 134 1427 238 133 30 350 75 482 99 462 86 644 132 1065 265
500 157 665 230 935 410 230 153 361 282 458 450 96 166 100 182 101 335 1
117 -1 134 -21 172 -13 23 -23 59 -23 80 0 75 -21 169 -52 232 -32 67 -101
141 -148 161 -25 10 -31 21 -40 69 -19 93 -40 160 -95 301 -94 243 -165 363
-284 481 -78 77 -117 97 -150 80 -13 -8 -45 -4 -114 14 -103 26 -284 54 -522
80 -176 20 -456 58 -570 79 -292 52 -734 143 -865 176 -536 137 -659 174 -888
264 -79 31 -193 71 -254 89 -107 31 -111 33 -130 72 -76 149 -184 253 -341
330 -167 81 -226 99 -327 98 -47 0 -93 -2 -103 -4 -14 -3 -22 6 -31 32 -32 91
-85 145 -169 173 -91 30 -126 20 -194 -55 l-34 -37 -71 24 c-39 14 -100 29
-137 33 -56 7 -68 12 -86 37 -84 121 -268 220 -417 226 -50 2 -80 11 -148 44
-167 81 -297 123 -423 139 -57 7 -57 7 -57 41 0 42 -23 101 -53 132 -33 35
-142 111 -190 132 -54 23 -144 34 -178 22 -22 -9 -33 -6 -65 15 -57 39 -165
70 -296 84 l-118 13 0 38 c0 89 -56 149 -188 201 -65 25 -91 30 -172 31 -52 1
-107 -2 -122 -7 l-28 -7 0 59 c0 188 -132 301 -336 288 l-82 -5 -34 47 c-125
175 -374 368 -615 477 -202 92 -260 131 -418 284 -176 171 -319 290 -473 394
-185 125 -429 237 -589 271 -75 16 -280 18 -378 4z m455 -138 c151 -53 145
-46 102 -109 -50 -75 -63 -79 -180 -56 -73 14 -140 19 -272 19 -172 0 -176 -1
-257 -32 l-82 -31 -92 69 c-51 38 -94 70 -95 72 -4 4 343 83 426 96 30 6 123
9 205 7 141 -2 156 -4 245 -35z m2252 -1410 c56 -24 94 -61 118 -113 27 -59
25 -98 -7 -146 -63 -93 -211 -198 -453 -322 -74 -38 -150 -80 -169 -94 -19
-14 -63 -35 -99 -47 -60 -20 -78 -21 -206 -15 -141 6 -348 30 -366 41 -6 3
-10 22 -10 42 0 20 -5 51 -11 68 -10 28 -9 36 10 62 31 42 76 64 218 112 174
57 263 106 479 262 104 75 222 138 299 161 69 20 133 17 197 -11z m-7668 -356
c50 -49 118 -112 151 -140 33 -27 94 -79 135 -115 117 -103 252 -206 368 -281
66 -42 101 -70 92 -73 -8 -3 -66 -23 -128 -45 -136 -49 -229 -91 -360 -165
-55 -31 -107 -56 -115 -56 -9 0 -23 -7 -31 -16 -9 -9 -65 -28 -124 -44 -59
-16 -204 -61 -322 -100 -240 -81 -280 -89 -280 -59 0 12 11 24 28 31 15 7 28
13 30 14 2 1 0 14 -4 28 -5 19 -11 25 -24 21 -16 -5 -16 0 2 82 34 163 99 417
133 526 33 103 82 226 95 237 4 3 23 39 43 80 20 41 65 112 99 158 l63 83 29
-38 c16 -21 70 -78 120 -128z m8160 15 c90 -28 150 -75 154 -121 3 -33 -3 -41
-70 -105 -41 -38 -111 -98 -157 -133 -86 -66 -222 -179 -376 -315 -128 -113
-150 -125 -228 -133 -85 -8 -183 12 -214 43 -43 43 -24 144 56 303 65 128 118
191 202 240 86 51 153 99 232 169 65 57 107 69 248 71 62 1 106 -5 153 -19z
m190 -452 c35 -73 66 -140 69 -148 2 -9 -7 -30 -22 -47 l-26 -32 -80 14 c-71
13 -84 19 -116 53 -20 21 -46 65 -58 97 l-22 60 28 23 c29 25 155 112 161 112
2 0 32 -60 66 -132z m672 67 c53 -22 152 -104 162 -135 10 -27 9 -27 -51 -44
-34 -9 -84 -32 -112 -51 -69 -47 -204 -180 -308 -304 -103 -122 -281 -284
-328 -299 -89 -28 -94 -27 -119 22 -22 41 -23 48 -13 105 13 69 67 184 135
286 87 130 325 346 452 410 58 29 128 33 182 10z m213 -302 c20 -55 29 -74 91
-188 15 -27 31 -61 35 -74 l7 -24 -45 26 c-24 14 -96 47 -158 73 -119 48 -209
91 -209 99 0 10 110 87 166 115 83 42 89 40 113 -27z m782 -209 c76 -23 124
-49 176 -97 41 -38 43 -42 27 -54 -10 -7 -24 -13 -32 -13 -12 0 -121 -62 -274
-155 -9 -5 -81 -55 -160 -111 -259 -182 -283 -193 -406 -186 -55 3 -65 7 -74
27 -16 36 -1 105 40 176 47 82 264 300 347 349 127 75 246 96 356 64z m-9638
-253 c122 -61 328 -152 457 -205 129 -52 318 -129 420 -171 102 -42 284 -110
405 -150 121 -40 279 -98 350 -130 148 -64 256 -104 674 -250 163 -56 393
-140 511 -185 231 -88 1107 -382 1280 -430 58 -16 141 -36 185 -46 108 -23
114 -26 75 -51 -27 -17 -38 -19 -71 -10 -44 11 -44 11 -53 -20 -5 -16 -2 -23
14 -28 11 -4 18 -10 15 -15 -10 -17 33 -32 55 -20 16 8 33 8 70 -3 28 -8 50
-12 50 -8 0 3 3 16 6 28 5 17 0 22 -26 28 -31 7 -31 7 -10 22 12 8 19 21 16
29 -3 8 -3 14 0 14 3 0 81 -24 172 -54 172 -56 197 -62 467 -120 555 -120 881
-125 1155 -21 87 33 148 70 218 130 118 101 183 200 222 335 24 85 45 423 37
608 l-4 104 29 -6 c68 -13 340 -227 488 -383 97 -101 275 -333 337 -438 177
-297 210 -613 92 -881 -63 -144 -135 -232 -282 -342 -148 -112 -293 -161 -502
-169 -220 -8 -516 42 -753 127 -46 17 -93 30 -105 30 -12 0 -69 14 -127 30
-58 17 -166 46 -240 66 -231 60 -534 154 -840 259 -248 85 -862 296 -1100 377
-409 139 -1255 457 -1605 603 -88 36 -237 97 -332 135 -94 38 -279 116 -410
173 -131 57 -256 110 -278 117 -22 7 -125 51 -230 98 -104 46 -244 108 -310
137 -243 107 -545 249 -863 409 -393 197 -441 223 -422 230 193 62 337 108
346 111 5 1 42 -12 82 -30 68 -32 72 -33 82 -15 15 29 12 37 -20 50 -47 20
-35 34 33 39 11 0 119 -48 240 -108z m10474 48 c98 -37 132 -86 133 -191 0
-67 -48 -184 -153 -371 -47 -83 -78 -124 -133 -177 -93 -88 -128 -100 -217
-76 -34 10 -69 21 -77 25 -21 11 -49 97 -49 151 -1 129 144 385 348 617 51 58
50 58 148 22z m-579 -71 c16 -24 41 -64 56 -90 l27 -47 -38 -7 c-21 -4 -69 -2
-107 5 -68 11 -196 51 -196 61 1 14 192 117 222 119 4 1 20 -18 36 -41z
m-3534 -147 c39 -22 114 -58 166 -81 52 -23 136 -60 185 -82 50 -22 144 -60
210 -84 66 -25 136 -51 155 -58 115 -44 548 -130 760 -151 108 -10 339 -65
445 -105 230 -86 597 -262 805 -385 73 -43 298 -195 329 -222 18 -14 -85 -277
-188 -482 -167 -333 -241 -423 -726 -873 -99 -92 -234 -209 -300 -261 -169
-132 -353 -269 -397 -296 -21 -12 -47 -34 -58 -48 l-20 -26 -373 27 c-204 14
-484 31 -622 36 -137 6 -272 12 -300 15 -27 3 -180 10 -338 15 -158 6 -376 19
-485 29 -108 11 -251 25 -317 31 -66 6 -185 17 -265 25 -80 8 -239 21 -355 29
-115 9 -383 29 -595 47 -212 17 -483 34 -603 38 l-217 6 50 74 c45 66 229 302
292 372 13 15 43 51 68 80 25 30 88 98 140 151 l95 96 105 -34 c58 -20 184
-59 280 -89 96 -29 245 -78 330 -110 212 -78 522 -172 845 -256 148 -38 304
-80 345 -93 73 -23 214 -58 450 -112 63 -15 129 -30 145 -34 39 -10 121 -25
277 -50 136 -22 338 -26 439 -8 118 21 309 93 362 138 6 6 30 24 52 41 136
105 180 159 274 344 65 128 68 140 77 280 7 100 -6 206 -36 293 -11 31 -24 89
-30 127 -62 395 -463 927 -948 1255 -126 85 -231 85 -292 1 -19 -28 -20 -37
-13 -123 12 -137 -3 -514 -23 -596 -32 -130 -94 -222 -205 -307 -198 -153
-500 -195 -923 -129 -181 28 -680 136 -715 154 -9 5 1 15 33 34 45 26 182 136
481 384 223 186 322 273 555 493 142 134 394 391 471 482 17 20 36 37 42 37 5
0 42 -18 81 -39z m4534 -15 c48 -19 130 -54 182 -78 82 -39 105 -56 171 -125
104 -109 154 -220 135 -297 -9 -38 -118 -149 -189 -194 -75 -47 -166 -82 -221
-85 -39 -2 -41 0 -55 38 -22 67 -19 272 8 385 12 52 24 110 28 128 6 35 17 46
47 47 46 1 16 34 -65 71 -14 6 -41 25 -60 41 -19 16 -51 41 -71 56 -77 57 -36
62 90 13z m-180 -36 c13 0 182 -98 182 -106 0 -2 -7 -31 -16 -64 l-17 -59 -76
39 c-42 22 -94 54 -116 73 l-39 34 18 58 c16 53 19 56 35 41 10 -9 23 -16 29
-16z m1087 -570 c83 -32 167 -64 188 -71 20 -7 37 -19 37 -26 0 -19 28 -27 44
-14 9 8 22 8 39 2 13 -5 96 -28 183 -51 88 -22 166 -43 175 -46 9 -2 19 -13
22 -24 7 -27 35 -36 54 -17 14 13 26 12 122 -13 119 -32 173 -43 449 -96 155
-29 195 -40 203 -55 11 -21 39 -25 56 -8 8 8 40 5 114 -10 107 -22 504 -81
542 -81 11 0 29 -7 39 -16 13 -13 21 -14 31 -5 25 20 432 -35 592 -81 76 -22
80 -25 83 -53 5 -48 -52 -98 -146 -129 -130 -42 -296 -83 -547 -135 -277 -57
-392 -75 -600 -96 -166 -17 -179 -19 -517 -75 -254 -43 -358 -69 -763 -190
-362 -109 -426 -136 -622 -257 -136 -84 -253 -140 -307 -148 -53 -8 -121 9
-165 42 -48 37 -64 84 -58 166 5 79 56 194 154 348 85 133 346 657 381 764 39
120 66 274 58 332 -3 26 -15 62 -26 81 l-21 34 28 -7 c15 -3 96 -33 178 -65z
m3545 -1580 c21 0 42 -63 38 -112 -16 -165 -293 -359 -696 -487 -365 -117
-1123 -309 -1357 -345 -55 -8 -220 -35 -367 -60 -147 -25 -406 -61 -575 -81
-169 -19 -360 -42 -423 -50 -250 -32 -869 -95 -1120 -114 -370 -29 -572 -39
-970 -51 -190 -5 -478 -15 -640 -22 -610 -24 -1527 -6 -2475 47 -596 34 -821
49 -1330 85 -253 18 -397 26 -1285 65 -352 16 -393 18 -940 35 -354 12 -767
33 -1065 55 -110 8 -279 19 -375 25 -292 17 -1018 88 -1325 130 -77 11 -241
31 -365 45 -393 45 -912 137 -1131 200 -125 36 -293 115 -313 147 -14 23 8
217 29 258 l15 30 43 -33 c95 -72 316 -146 644 -216 224 -47 329 -63 608 -91
116 -11 219 -22 230 -25 11 -2 185 -16 385 -30 201 -14 372 -27 380 -30 29 -8
796 -66 1205 -90 143 -9 321 -20 395 -26 74 -5 200 -14 280 -20 80 -6 298 -14
485 -19 193 -5 479 -20 660 -34 176 -15 410 -33 520 -41 301 -22 559 -44 660
-55 356 -40 708 -66 1000 -75 99 -3 243 -10 320 -15 77 -5 217 -12 310 -15
152 -6 623 -36 780 -50 185 -17 2285 -21 2570 -4 178 10 332 23 450 39 39 6
158 17 265 25 345 26 455 38 865 91 254 32 460 52 635 59 538 23 577 27 1095
125 83 16 220 41 305 56 154 27 644 160 825 224 222 79 367 148 467 222 65 48
218 206 218 224 0 5 7 20 17 33 l16 24 14 -27 c7 -14 18 -26 23 -26z m-5039
-41 c11 -11 18 -27 15 -36 -12 -30 5 -61 37 -67 17 -3 41 -16 54 -28 43 -40
22 -80 -42 -80 -41 0 -50 -13 -54 -76 -3 -51 11 -72 50 -72 36 0 62 -26 53
-54 -11 -35 -25 -46 -60 -46 -29 0 -34 -4 -34 -23 0 -13 -4 -27 -9 -33 -5 -5
-14 -26 -21 -47 -22 -71 -93 -60 -104 16 -4 25 -13 53 -20 63 -12 16 -16 16
-30 4 -10 -7 -24 -30 -32 -49 -13 -32 -58 -81 -73 -81 -14 1 -30 17 -39 40 -9
24 -14 160 -14 385 0 173 -2 163 36 182 29 13 39 14 65 3 26 -10 31 -18 31
-45 0 -48 9 -65 35 -65 19 0 23 6 28 47 8 76 79 111 128 62z m-418 -22 c15
-10 19 -43 28 -224 12 -243 6 -283 -41 -308 -38 -20 -66 -19 -75 3 -4 9 -10
105 -12 213 -6 225 -9 234 -69 218 -21 -6 -44 -16 -51 -22 -8 -8 -13 -59 -14
-155 -2 -156 -1 -162 53 -162 56 0 57 -69 2 -90 -38 -15 -127 -12 -150 4 -18
13 -19 28 -19 203 0 180 1 190 25 238 37 73 84 95 210 95 62 0 102 -5 113 -13z
m5586 -297 c16 -35 21 -65 21 -135 0 -115 -10 -150 -75 -260 l-53 -90 -103
-32 c-57 -17 -156 -47 -219 -68 -63 -20 -173 -47 -245 -61 -71 -13 -195 -38
-275 -54 -80 -17 -219 -42 -310 -56 -365 -56 -995 -181 -1339 -265 -333 -82
-513 -148 -695 -258 -115 -69 -310 -166 -382 -190 -166 -55 -605 -116 -1094
-152 -220 -16 -605 -13 -727 5 -242 38 -252 38 -878 26 -1160 -21 -1753 -47
-2010 -89 -453 -75 -412 -72 -1010 -76 -565 -5 -1053 4 -1675 30 -377 16 -487
25 -695 55 -267 38 -356 43 -715 36 -190 -3 -426 -10 -525 -15 -407 -22 -1011
-9 -1475 29 -525 44 -1049 98 -1300 136 -487 73 -714 138 -978 283 l-132 73 4
46 c3 26 8 205 11 397 3 193 8 379 11 415 l6 66 102 -51 c57 -29 151 -64 216
-82 227 -63 739 -153 1125 -198 121 -14 324 -39 450 -55 282 -36 1009 -107
1240 -120 94 -6 260 -17 370 -25 433 -32 764 -48 1345 -65 184 -6 423 -15 530
-20 107 -5 366 -16 575 -25 393 -15 523 -23 980 -55 241 -17 597 -40 1100 -70
971 -59 1989 -78 2665 -52 168 6 400 14 515 17 668 17 1304 67 2155 170 113
13 306 36 430 50 249 29 460 60 710 105 91 16 206 34 255 39 172 18 1098 258
1413 366 295 101 536 260 623 413 l24 42 7 -68 c3 -37 15 -87 27 -112z"/>
<path d="M4169 9027 c-22 -10 -25 -16 -18 -34 10 -26 14 -27 58 -12 22 8 30
16 27 26 -3 8 -6 19 -6 24 0 12 -29 10 -61 -4z"/>
<path d="M4040 8980 c-37 -15 -45 -22 -42 -41 4 -32 5 -33 62 -14 44 15 50 20
44 38 -10 35 -16 36 -64 17z"/>
<path d="M3883 8913 c-33 -17 -40 -36 -24 -61 7 -11 16 -10 50 7 42 22 46 28
35 55 -8 20 -20 19 -61 -1z"/>
<path d="M3738 8844 c-52 -26 -55 -31 -35 -58 13 -17 15 -17 58 4 24 12 45 24
47 25 5 5 -10 55 -17 54 -3 -1 -27 -12 -53 -25z"/>
<path d="M3592 8768 c-37 -16 -42 -22 -36 -41 9 -31 10 -31 46 -17 47 19 57
28 51 51 -8 28 -13 28 -61 7z"/>
<path d="M3443 8713 c-43 -15 -50 -26 -34 -51 6 -10 17 -11 54 -1 50 12 50 12
41 47 -7 25 -5 25 -61 5z"/>
<path d="M3280 8667 c-19 -6 -36 -11 -38 -13 -3 -2 15 -41 23 -51 1 -2 23 4
49 13 34 12 46 20 42 31 -3 8 -6 19 -6 24 0 11 -25 10 -70 -4z"/>
<path d="M3135 8620 c-42 -15 -50 -21 -47 -41 1 -12 4 -25 7 -27 2 -2 28 4 58
14 54 19 55 20 44 45 l-12 26 -50 -17z"/>
<path d="M3773 8441 c-11 -18 -8 -22 32 -45 67 -37 79 -39 93 -15 16 25 20 20
-45 53 -63 31 -65 31 -80 7z"/>
<path d="M3315 8400 c-22 -24 -25 -20 51 -58 l61 -31 12 26 c6 14 10 27 9 28
-5 5 -107 55 -111 55 -2 0 -12 -9 -22 -20z"/>
<path d="M3950 8360 c-6 -11 -9 -24 -6 -29 3 -4 35 -20 71 -36 64 -27 66 -27
80 -9 8 11 15 22 15 25 0 5 -51 29 -141 67 -4 2 -13 -6 -19 -18z"/>
<path d="M3491 8313 c-6 -14 -10 -27 -9 -28 2 -1 26 -14 55 -28 l51 -26 16 24
c16 25 16 25 -43 54 l-58 30 -12 -26z"/>
<path d="M4151 8271 c-6 -11 -11 -22 -11 -25 0 -6 127 -66 140 -66 4 0 12 11
18 24 11 25 10 26 -129 84 -4 2 -12 -6 -18 -17z"/>
<path d="M3656 8228 c-17 -23 -17 -23 65 -61 45 -21 83 -37 84 -35 2 2 6 14
10 28 6 26 -2 31 -136 88 -4 2 -14 -7 -23 -20z"/>
<path d="M4350 8180 c-14 -26 -17 -24 53 -54 55 -25 57 -25 67 -6 14 27 14 28
-27 49 -66 33 -81 34 -93 11z"/>
<path d="M3865 8129 c-4 -11 -5 -22 -3 -24 8 -8 149 -75 156 -75 5 0 13 10 19
22 9 21 4 25 -65 60 -86 44 -98 46 -107 17z"/>
<path d="M4524 8103 c-4 -15 -3 -28 2 -30 5 -2 43 -19 84 -38 75 -34 100 -34
100 1 0 11 -157 94 -176 94 -2 0 -7 -12 -10 -27z"/>
<path d="M4085 8023 c-15 -22 -14 -23 65 -63 l80 -40 13 27 c10 21 9 27 -2 31
-8 3 -42 19 -77 37 l-64 32 -15 -24z"/>
<path d="M4756 8005 c-10 -28 -8 -32 45 -54 64 -26 71 -26 87 -1 11 19 9 22
-34 40 -71 31 -90 34 -98 15z"/>
<path d="M4295 7927 c-8 -12 -11 -24 -7 -27 17 -13 172 -83 176 -79 2 2 7 14
10 26 6 19 0 26 -41 46 -26 14 -65 32 -85 40 -36 15 -38 15 -53 -6z"/>
<path d="M4940 7930 c-15 -28 -9 -33 70 -59 61 -20 66 -20 77 -4 7 9 13 20 13
24 0 3 -28 17 -62 29 -35 13 -68 25 -75 27 -6 3 -17 -5 -23 -17z"/>
<path d="M5146 7857 c-3 -12 -6 -24 -6 -27 0 -3 32 -17 70 -30 61 -21 72 -23
80 -10 19 29 9 38 -64 63 l-74 25 -6 -21z"/>
<path d="M4525 7819 c-9 -29 -1 -35 96 -69 78 -28 85 -29 97 -13 7 9 11 22 9
28 -3 8 -66 33 -179 70 -11 4 -19 -1 -23 -16z"/>
<path d="M5356 7793 c-12 -31 -3 -40 65 -62 59 -19 73 -21 80 -9 18 26 3 40
-68 63 -61 19 -73 20 -77 8z"/>
<path d="M4775 7719 c-4 -11 -5 -22 -3 -24 2 -2 40 -20 85 -39 l81 -34 7 25
c3 14 5 27 3 28 -9 9 -143 65 -154 65 -7 0 -16 -9 -19 -21z"/>
<path d="M5561 7718 c-10 -26 -6 -30 65 -54 102 -35 104 -35 113 -11 6 15 4
24 -6 30 -13 8 -152 57 -160 57 -2 0 -7 -10 -12 -22z"/>
<path d="M10732 7711 c-10 -6 -13 -29 -11 -84 3 -72 4 -76 29 -80 14 -3 27 -3
29 -1 8 8 -14 168 -24 171 -5 1 -16 -1 -23 -6z"/>
<path d="M10824 7645 c1 -27 9 -42 31 -60 37 -30 39 -30 53 -1 10 22 7 28 -33
60 -24 20 -45 36 -48 36 -2 0 -3 -16 -3 -35z"/>
<path d="M5796 7643 c-12 -31 -4 -42 50 -67 68 -31 81 -32 89 -5 8 25 13 21
-67 57 -55 25 -68 28 -72 15z"/>
<path d="M4999 7636 c-1 -9 -2 -21 -3 -27 -1 -5 38 -28 86 -49 83 -37 88 -38
98 -20 5 10 10 21 10 25 0 6 -127 66 -167 79 -17 5 -23 3 -24 -8z"/>
<path d="M5989 7555 c-1 -8 -2 -20 -3 -27 -1 -6 32 -21 72 -34 72 -22 73 -22
83 -2 14 26 7 32 -75 57 -81 25 -76 25 -77 6z"/>
<path d="M10948 7545 c-10 -23 -8 -29 23 -61 52 -54 67 -60 80 -30 10 22 8 29
-22 61 -51 55 -67 61 -81 30z"/>
<path d="M5236 7524 c-4 -14 -6 -27 -4 -28 23 -13 160 -68 162 -65 2 2 8 14
14 25 11 20 6 24 -66 54 -42 18 -82 34 -88 37 -6 2 -15 -8 -18 -23z"/>
<path d="M6197 7478 c-4 -12 -5 -23 -3 -25 1 -2 38 -18 82 -37 57 -25 81 -31
86 -23 19 30 6 44 -69 75 -43 18 -81 32 -84 32 -4 0 -9 -10 -12 -22z"/>
<path d="M10732 7439 c3 -48 5 -53 31 -60 l28 -8 -3 57 c-3 54 -4 57 -31 60
-28 3 -28 3 -25 -49z"/>
<path d="M5460 7442 c0 -6 -2 -17 -5 -24 -4 -10 18 -24 76 -48 67 -27 82 -31
90 -19 17 26 4 40 -56 66 -74 31 -105 38 -105 25z"/>
<path d="M11091 7414 c-11 -25 -9 -30 31 -71 23 -23 46 -43 50 -43 4 0 12 10
19 21 10 19 5 27 -38 71 l-49 49 -13 -27z"/>
<path d="M6424 7396 c-11 -30 4 -44 80 -69 63 -21 75 -23 80 -10 13 33 4 42
-61 64 -38 12 -74 24 -80 27 -7 2 -16 -3 -19 -12z"/>
<path d="M5677 7338 c-4 -12 -5 -23 -4 -24 7 -7 199 -85 201 -82 2 1 8 12 14
24 10 20 5 24 -86 63 -53 22 -102 41 -108 41 -7 0 -14 -10 -17 -22z"/>
<path d="M6638 7305 c-5 -22 1 -26 69 -51 40 -15 75 -25 77 -23 2 2 6 14 10
25 6 19 -1 25 -59 48 -81 32 -91 32 -97 1z"/>
<path d="M10715 7264 c-5 -51 -4 -69 7 -75 30 -20 43 -5 50 61 4 35 6 65 5 66
-1 0 -14 4 -28 7 -26 7 -27 6 -34 -59z"/>
<path d="M11220 7270 c-9 -17 -4 -30 32 -80 23 -33 45 -60 48 -60 4 0 14 8 23
18 16 17 14 22 -29 80 -25 34 -50 62 -55 62 -4 0 -13 -9 -19 -20z"/>
<path d="M6846 7234 c-4 -15 -6 -27 -4 -28 2 -1 35 -12 73 -24 66 -21 71 -21
83 -5 7 10 11 22 9 27 -2 7 -127 52 -153 56 -1 0 -5 -12 -8 -26z"/>
<path d="M5940 7230 c-6 -12 -10 -23 -8 -25 2 -1 41 -19 87 -39 88 -39 115
-40 109 -5 -2 15 -21 28 -68 48 -103 44 -107 45 -120 21z"/>
<path d="M7055 7169 c-9 -29 -3 -33 95 -63 79 -24 86 -24 98 -9 7 10 11 22 9
27 -3 8 -167 65 -189 66 -4 0 -10 -9 -13 -21z"/>
<path d="M6187 7143 c-4 -3 -7 -14 -7 -24 0 -25 188 -98 201 -78 18 28 2 41
-84 75 -95 36 -100 38 -110 27z"/>
<path d="M10682 7071 l-21 -61 22 -15 c21 -15 23 -14 41 27 27 61 27 102 0
106 -18 3 -25 -6 -42 -57z"/>
<path d="M7306 7094 c-11 -28 -7 -32 65 -54 58 -17 74 -19 80 -8 17 26 8 37
-53 57 -74 25 -84 26 -92 5z"/>
<path d="M11347 7098 c-16 -12 -15 -18 18 -80 32 -60 39 -67 55 -58 31 16 30
23 -4 85 -36 65 -44 71 -69 53z"/>
<path d="M6440 7041 c0 -5 -2 -16 -5 -23 -4 -10 22 -25 95 -52 55 -21 103 -37
105 -34 3 2 6 14 7 27 3 20 -8 26 -87 57 -94 35 -115 40 -115 25z"/>
<path d="M7511 7028 c-5 -13 -6 -26 -2 -29 3 -3 42 -18 85 -33 64 -22 80 -25
87 -14 17 25 4 40 -56 63 -105 39 -104 39 -114 13z"/>
<path d="M7744 6956 c-11 -29 2 -39 96 -72 72 -27 95 -32 102 -22 17 26 1 41
-72 68 -117 43 -119 43 -126 26z"/>
<path d="M6694 6934 c-4 -14 -5 -26 -3 -28 9 -8 190 -78 193 -75 2 2 7 14 10
26 8 24 2 28 -131 78 l-63 24 -6 -25z"/>
<path d="M10625 6941 c-3 -11 -21 -39 -40 -63 -34 -42 -34 -43 -15 -62 18 -19
19 -19 47 14 40 48 64 90 58 101 -4 5 -15 13 -25 19 -15 8 -20 6 -25 -9z"/>
<path d="M11453 6917 c-13 -5 -23 -13 -23 -17 0 -4 14 -37 30 -72 27 -58 33
-65 55 -60 31 6 31 12 -8 93 -30 62 -34 66 -54 56z"/>
<path d="M8001 6858 c-8 -22 -5 -24 66 -46 41 -13 77 -22 79 -20 2 2 5 15 6
28 3 20 -4 25 -37 35 -94 28 -104 28 -114 3z"/>
<path d="M6945 6832 c-3 -13 -5 -26 -3 -27 2 -2 45 -19 97 -39 73 -28 96 -34
103 -24 20 32 6 43 -91 79 l-100 36 -6 -25z"/>
<path d="M10452 6749 c-46 -38 -50 -43 -40 -65 6 -13 14 -24 18 -24 3 0 31 22
60 49 48 42 53 50 41 65 -19 22 -22 21 -79 -25z"/>
<path d="M7201 6737 c-5 -12 -6 -25 -2 -29 3 -4 53 -25 111 -47 75 -28 107
-36 112 -28 17 26 7 43 -34 59 -24 9 -74 27 -111 42 l-68 25 -8 -22z"/>
<path d="M8471 6729 c-5 -13 -8 -25 -6 -27 3 -4 179 -52 181 -49 1 1 5 13 9
27 6 24 3 26 -62 43 -37 10 -78 20 -90 23 -18 5 -25 1 -32 -17z"/>
<path d="M8139 6679 c-74 -55 -74 -56 -59 -74 7 -8 16 -15 19 -15 6 0 111 78
129 94 1 2 -6 10 -16 19 -17 16 -22 14 -73 -24z"/>
<path d="M11522 6711 c-11 -7 -11 -23 -1 -90 12 -79 13 -81 41 -81 35 0 35 3
2 158 -5 23 -20 28 -42 13z"/>
<path d="M8710 6664 c0 -27 4 -30 65 -45 35 -9 67 -14 70 -11 3 3 5 16 5 28 0
24 -19 32 -108 50 -30 6 -32 5 -32 -22z"/>
<path d="M10285 6635 c-33 -19 -64 -36 -70 -38 -6 -2 -5 -13 2 -30 l12 -26 43
21 c24 11 57 29 74 41 28 18 30 24 21 44 -5 13 -13 23 -16 23 -3 0 -33 -16
-66 -35z"/>
<path d="M7480 6626 c0 -21 9 -27 70 -45 96 -30 130 -35 130 -23 0 6 2 17 5
25 5 10 -17 20 -87 40 -114 33 -118 33 -118 3z"/>
<path d="M8907 6633 c-17 -16 -6 -43 21 -49 15 -3 50 -12 79 -19 44 -11 53
-11 57 2 13 33 4 41 -59 57 -70 18 -88 19 -98 9z"/>
<path d="M9127 6583 c-15 -15 -6 -43 16 -47 47 -10 128 -26 132 -26 3 0 5 13
5 28 0 27 -3 29 -64 40 -74 14 -80 14 -89 5z"/>
<path d="M7736 6558 c-8 -32 -8 -38 5 -38 7 0 43 -9 80 -20 47 -14 67 -25 63
-34 -3 -7 2 -18 10 -25 13 -11 27 -3 90 50 58 48 73 66 64 76 -16 20 -34 16
-72 -18 -35 -30 -35 -30 -78 -16 -24 8 -62 20 -86 27 -24 6 -49 13 -56 16 -8
3 -16 -4 -20 -18z"/>
<path d="M10074 6546 c-67 -20 -71 -22 -63 -43 10 -27 12 -27 94 -7 65 17 76
27 53 56 -12 13 -20 13 -84 -6z"/>
<path d="M9340 6527 c0 -33 3 -34 78 -43 62 -7 62 -6 62 19 0 28 -8 32 -87 42
-52 7 -53 6 -53 -18z"/>
<path d="M9540 6496 c0 -27 28 -36 116 -36 50 0 54 2 54 24 0 19 -6 24 -37 30
-21 3 -59 6 -85 6 -44 0 -48 -2 -48 -24z"/>
<path d="M9858 6512 l-88 -3 0 -29 0 -30 64 0 c87 0 126 9 126 29 0 31 -15 36
-102 33z"/>
<path d="M8000 6477 c0 -19 9 -30 32 -41 17 -9 39 -16 49 -16 10 0 42 -9 70
-20 28 -12 53 -19 55 -17 2 2 5 14 6 27 3 21 -5 27 -67 51 -38 15 -87 30 -107
34 -36 7 -38 6 -38 -18z"/>
<path d="M11558 6483 c-13 -3 -17 -19 -20 -80 -3 -70 -1 -76 20 -86 12 -6 24
-8 27 -5 10 10 10 171 0 173 -5 2 -18 1 -27 -2z"/>
<path d="M8267 6385 c-4 -24 0 -29 37 -44 22 -10 65 -26 95 -36 52 -17 55 -17
68 1 7 10 13 21 13 25 0 4 -42 22 -92 39 -51 17 -98 34 -104 36 -6 3 -14 -7
-17 -21z"/>
<path d="M8527 6303 c-7 -7 -10 -43 -3 -43 2 0 47 -15 99 -34 80 -29 96 -32
101 -19 13 34 4 42 -87 72 -101 34 -101 34 -110 24z"/>
<path d="M11514 6235 c-3 -19 -10 -35 -14 -35 -4 0 -15 -15 -24 -32 -9 -18
-22 -41 -28 -50 -10 -14 -8 -21 7 -38 l20 -22 32 37 c17 20 41 63 51 95 l20
58 -25 11 c-32 15 -31 16 -39 -24z"/>
<path d="M8785 6222 c-3 -3 -5 -15 -5 -28 0 -19 13 -26 112 -58 62 -19 116
-32 120 -28 3 4 8 16 10 26 3 17 -14 25 -114 57 -64 20 -120 34 -123 31z"/>
<path d="M9072 6105 c-11 -24 -10 -25 46 -41 31 -9 75 -22 97 -29 35 -12 41
-12 53 3 7 9 11 21 9 26 -3 9 -159 65 -183 66 -6 0 -16 -11 -22 -25z"/>
<path d="M9327 6028 c-4 -12 -5 -24 -3 -26 6 -5 204 -62 217 -62 6 0 9 12 7
27 -3 25 -10 29 -98 55 -115 33 -116 34 -123 6z"/>
<path d="M11347 5995 c-47 -52 -47 -52 -27 -70 21 -19 22 -18 72 33 51 50 52
51 33 72 -10 11 -21 20 -24 19 -3 -1 -27 -25 -54 -54z"/>
<path d="M9605 5949 c-4 -12 -3 -24 2 -28 10 -10 214 -74 218 -69 2 2 5 14 7
27 3 23 -4 27 -97 57 -121 39 -122 39 -130 13z"/>
<path d="M11201 5874 c-24 -18 -48 -34 -52 -34 -5 0 -3 -11 3 -25 6 -14 16
-25 21 -25 6 0 34 19 64 41 51 40 53 43 37 60 -22 24 -21 24 -73 -17z"/>
<path d="M9890 5862 c0 -29 2 -30 96 -56 53 -15 98 -25 99 -24 2 2 6 14 10 28
6 25 4 27 -87 50 -51 13 -99 25 -105 28 -9 3 -13 -6 -13 -26z"/>
<path d="M10150 5806 c0 -8 -2 -21 -5 -29 -5 -10 12 -18 67 -30 181 -41 178
-41 178 -2 0 20 -6 24 -42 30 -39 6 -138 29 -180 41 -12 3 -18 0 -18 -10z"/>
<path d="M11020 5782 c-80 -32 -74 -26 -66 -56 l6 -25 72 25 c40 13 76 28 81
33 4 4 0 17 -10 28 l-18 20 -65 -25z"/>
<path d="M10447 5744 c-4 -4 -7 -15 -7 -24 0 -22 38 -30 132 -30 66 0 69 1 66
23 -3 19 -9 22 -48 23 -25 1 -65 4 -90 8 -25 4 -48 4 -53 0z"/>
<path d="M10763 5741 c-68 -7 -76 -11 -68 -34 9 -22 47 -29 131 -21 75 7 82
12 68 48 -6 17 -21 18 -131 7z"/>
<path d="M15954 7439 c-7 -11 22 -47 30 -38 8 7 -5 49 -15 49 -4 0 -11 -5 -15
-11z"/>
<path d="M16724 7305 c-8 -20 4 -35 27 -35 14 0 19 7 19 25 0 18 -5 25 -20 25
-11 0 -23 -7 -26 -15z"/>
<path d="M15870 7236 c-18 -22 -5 -48 22 -44 17 2 23 10 23 28 0 29 -26 38
-45 16z"/>
<path d="M16316 7211 c-11 -18 6 -42 28 -39 29 4 29 42 -1 46 -11 2 -24 -1
-27 -7z"/>
<path d="M16952 7118 c4 -30 43 -33 43 -3 0 13 -8 21 -23 23 -20 3 -23 0 -20
-20z"/>
<path d="M17550 7075 c-17 -20 -5 -45 20 -45 11 0 23 7 26 15 6 15 -11 45 -26
45 -4 0 -13 -7 -20 -15z"/>
<path d="M15786 7024 c-8 -8 -13 -21 -9 -30 8 -22 47 -13 51 12 4 27 -22 38
-42 18z"/>
<path d="M17146 7001 c-11 -17 6 -41 29 -41 24 0 35 16 28 38 -5 14 -49 16
-57 3z"/>
<path d="M16673 6984 c-3 -8 1 -22 9 -30 13 -13 16 -13 28 0 10 13 10 19 0 31
-16 19 -29 19 -37 -1z"/>
<path d="M16230 6956 c0 -20 5 -26 21 -26 15 0 20 5 17 22 -5 34 -38 37 -38 4z"/>
<path d="M18280 6965 c0 -18 24 -30 39 -21 16 10 1 36 -20 36 -10 0 -19 -7
-19 -15z"/>
<path d="M17830 6905 c-15 -18 -6 -45 14 -45 22 0 38 34 24 48 -16 16 -23 15
-38 -3z"/>
<path d="M17358 6839 c-24 -14 -23 -36 3 -44 26 -9 41 12 28 37 -11 21 -9 20
-31 7z"/>
<path d="M16792 6791 c-23 -14 -10 -46 18 -46 20 0 25 5 25 25 0 26 -20 36
-43 21z"/>
<path d="M15657 6774 c-4 -4 -7 -16 -7 -26 0 -13 7 -18 26 -18 21 0 25 4 22
22 -3 23 -27 35 -41 22z"/>
<path d="M16184 6725 c-7 -18 12 -45 32 -45 15 0 28 35 19 50 -9 15 -45 12
-51 -5z"/>
<path d="M14111 5767 c-15 -15 -14 -70 1 -85 7 -7 20 -12 30 -12 15 0 18 8 18
49 0 40 -4 50 -19 54 -11 2 -24 0 -30 -6z"/>
</g>
</svg>
