<!-- icon666.com - MILLIONS OF FREE VECTOR ICONS --><svg id="Layer_1" enable-background="new 0 0 512 512" viewBox="0 0 512 512" xmlns="http://www.w3.org/2000/svg"><path fill="#000" clip-rule="evenodd" d="m256 0c141.385 0 256 114.615 256 256s-114.615 256-256 256-256-114.615-256-256 114.615-256 256-256zm53.73 327.131c-26.703 26.861-151.722-98.158-124.861-124.861 7.535-7.491 20.267-19.137 28.09-26.328 7.787-7.158-44.525-84.396-59.611-67.545l-35.402 39.545c-67.625 75.54 170.57 313.736 246.111 246.111l39.546-35.401c16.851-15.086-60.387-67.398-67.545-59.611-7.191 7.824-18.837 20.555-26.328 28.09zm-14.818-193.913 67.976 1.753-96.318 96.318c-3.905 3.905-3.905 10.236 0 14.141s10.236 3.905 14.141 0l96.318-96.318 1.753 67.975c.129 5.501 4.694 9.856 10.195 9.726s9.856-4.694 9.727-10.195l-2.354-91.242c-.121-5.289-4.382-9.601-9.727-9.727l-91.242-2.354c-5.501-.129-10.066 4.225-10.195 9.726-.13 5.503 4.225 10.068 9.726 10.197z" fill-rule="evenodd"></path></svg>