<?xml version="1.0" standalone="no"?>
<!DOCTYPE svg PUBLIC "-//W3C//DTD SVG 20010904//EN"
 "http://www.w3.org/TR/2001/REC-SVG-20010904/DTD/svg10.dtd">
<svg version="1.0" xmlns="http://www.w3.org/2000/svg"
 width="512.000000pt" height="512.000000pt" viewBox="0 0 512.000000 512.000000"
 preserveAspectRatio="xMidYMid meet">

<g transform="translate(0.000000,512.000000) scale(0.100000,-0.100000)"
fill="#000000" stroke="none">
<path d="M2321 5110 c-497 -48 -990 -251 -1376 -565 -114 -92 -294 -274 -384
-387 -229 -287 -417 -675 -495 -1023 -49 -218 -60 -325 -60 -575 0 -250 11
-357 60 -575 79 -355 272 -749 509 -1040 92 -114 274 -294 387 -384 287 -229
675 -417 1023 -495 218 -49 325 -60 575 -60 250 0 357 11 575 60 261 58 603
204 828 353 389 259 688 599 893 1016 125 255 196 484 241 775 24 161 24 539
0 700 -45 291 -116 520 -241 775 -134 272 -283 480 -498 692 -211 209 -404
346 -673 478 -252 124 -486 197 -765 240 -126 19 -468 27 -599 15z m1443
-1555 c214 -118 400 -224 412 -236 29 -28 48 -82 39 -116 -9 -35 -352 -662
-378 -691 -25 -27 -86 -45 -122 -36 -14 3 -60 33 -103 66 l-77 60 -3 -722 c-2
-712 -2 -722 -23 -751 -44 -62 4 -59 -939 -59 -924 0 -888 -2 -935 50 -20 22
-20 40 -25 752 l-5 730 -77 -60 c-43 -33 -89 -63 -103 -66 -36 -9 -97 9 -122
36 -27 29 -369 654 -378 690 -9 35 9 89 39 117 13 13 199 119 412 237 l389
214 805 0 805 0 389 -215z"/>
<path d="M1545 3345 c-159 -90 -294 -166 -298 -167 -6 -3 177 -367 199 -396 1
-2 56 33 122 77 66 45 133 84 150 87 21 4 45 0 76 -15 80 -39 76 9 76 -845 l0
-756 700 0 700 0 0 756 c0 858 -4 810 78 846 28 13 55 18 73 14 16 -3 83 -42
149 -86 119 -80 120 -80 133 -58 25 40 197 371 195 373 -2 1 -137 77 -301 168
l-298 167 -83 0 -84 0 -7 -37 c-24 -135 -104 -285 -191 -362 -105 -92 -218
-134 -364 -134 -271 0 -469 164 -543 448 l-22 85 -85 -1 -85 0 -290 -164z"/>
<path d="M2285 3483 c22 -94 88 -182 163 -220 52 -25 192 -25 244 0 75 38 141
126 163 220 l7 27 -292 0 -292 0 7 -27z"/>
</g>
</svg>
